<svg width="282" height="282" viewBox="0 0 282 282" fill="none" xmlns="http://www.w3.org/2000/svg">
<path opacity="0.6" d="M258.5 91.7675V163.325L239.348 146.875C230.183 139.003 215.377 139.003 206.212 146.875L157.333 188.822C148.168 196.695 133.362 196.695 124.197 188.822L120.202 185.533C111.86 178.247 98.5825 177.542 89.1825 183.887L31.3725 222.663L30.08 223.603C25.7325 214.203 23.5 203.04 23.5 190.233V91.7675C23.5 48.9975 48.9975 23.5 91.7675 23.5H190.233C233.003 23.5 258.5 48.9975 258.5 91.7675Z" fill="#E8EFFF"/>
<path d="M105.762 121.977C113.179 121.977 120.292 119.031 125.536 113.786C130.78 108.542 133.727 101.429 133.727 94.0119C133.727 86.5951 130.78 79.4821 125.536 74.2376C120.292 68.9932 113.179 66.0469 105.762 66.0469C98.345 66.0469 91.2319 68.9932 85.9875 74.2376C80.743 79.4821 77.7967 86.5951 77.7967 94.0119C77.7967 101.429 80.743 108.542 85.9875 113.786C91.2319 119.031 98.345 121.977 105.762 121.977ZM258.488 163.313V190.221C258.488 232.991 232.991 258.488 190.221 258.488H91.7557C61.7932 258.488 40.1732 245.916 30.0682 223.591L31.3607 222.651L89.1707 183.876C98.5707 177.531 111.848 178.236 120.191 185.521L124.186 188.811C133.351 196.683 148.156 196.683 157.321 188.811L206.201 146.863C215.366 138.991 230.171 138.991 239.336 146.863L258.488 163.313Z" fill="#0055FF" fill-opacity="0.8"/>
</svg>
